<svg xmlns="http://www.w3.org/2000/svg" xmlns:xlink="http://www.w3.org/1999/xlink" viewBox="0,0,256,256" width="64px" height="64px" fill-rule="nonzero"><g fill="#dd7540" fill-rule="nonzero" stroke="none" stroke-width="1" stroke-linecap="butt" stroke-linejoin="miter" stroke-miterlimit="10" stroke-dasharray="" stroke-dashoffset="0" font-family="none" font-weight="none" font-size="none" text-anchor="none" style="mix-blend-mode: normal"><g transform="scale(5.33333,5.33333)"><path d="M21.45508,4.19141c-0.05946,0.00103 -0.11881,0.0056 -0.17773,0.01367c-8.84315,1.20849 -15.83648,8.18852 -17.06445,17.02539c-0.06027,0.43608 0.07404,0.87662 0.36735,1.2049c0.29331,0.32828 0.71601,0.51116 1.15609,0.50018c7.12841,-0.18155 11.47502,-0.76326 14.16016,-3.56445c2.68514,-2.80119 3.00228,-7.06545 3.08398,-13.66211c0.00477,-0.40529 -0.15467,-0.79526 -0.44201,-1.08113c-0.28734,-0.28587 -0.67812,-0.4433 -1.08338,-0.43645zM26.57422,4.19141c-0.41027,-0.01496 -0.80874,0.13888 -1.10253,0.42565c-0.29378,0.28677 -0.4572,0.68141 -0.45216,1.09192c0.08222,6.57586 0.40014,10.83312 3.08398,13.63281c2.68384,2.79969 7.0291,3.3908 14.15625,3.58398c0.44076,0.01215 0.86454,-0.17022 1.15874,-0.49865c0.29419,-0.32843 0.429,-0.76966 0.3686,-1.20643c-1.23229,-8.83246 -8.22455,-15.80822 -17.06445,-17.01562c-0.04922,-0.00701 -0.09876,-0.01158 -0.14844,-0.01367zM19.83398,7.75c-0.18553,4.89723 -0.6865,8.06862 -2.10352,9.54688c-1.42506,1.48666 -4.68038,2.15206 -9.95313,2.44336c1.56114,-5.92331 6.11985,-10.46151 12.05664,-11.99023zM28.16797,7.75c5.93125,1.5276 10.48595,6.06031 12.05078,11.97656c-5.26754,-0.30038 -8.52363,-0.97186 -9.94922,-2.45898c-1.41742,-1.4786 -1.91556,-4.64041 -2.10156,-9.51758zM5.73633,25.06445c-0.44009,-0.01098 -0.86278,0.1719 -1.15609,0.50018c-0.29331,0.32828 -0.42762,0.76882 -0.36735,1.2049c1.22795,8.83781 8.22118,15.81797 17.06445,17.02539c0.43233,0.05907 0.86896,-0.07303 1.19604,-0.36185c0.32708,-0.28882 0.5122,-0.70574 0.50709,-1.14206c-0.08171,-6.59715 -0.39881,-10.86283 -3.08398,-13.66406c-2.68518,-2.80123 -7.03174,-3.38146 -14.16016,-3.5625zM42.31445,25.07031c-0.01759,0.00034 -0.03517,0.00099 -0.05273,0.00195c-7.1282,0.18962 -11.47307,0.76877 -14.1582,3.56641c-2.68513,2.79764 -3.00228,7.05873 -3.08398,13.65234c-0.00511,0.43632 0.18001,0.85324 0.50709,1.14206c0.32708,0.28882 0.76371,0.42092 1.19604,0.36185c8.84096,-1.2074 15.83325,-8.18407 17.06445,-17.01758c0.05955,-0.42754 -0.06796,-0.86001 -0.34993,-1.18686c-0.28197,-0.32685 -0.69107,-0.51639 -1.12272,-0.52017zM7.77734,28.25781c5.27282,0.29093 8.52808,0.95868 9.95313,2.44531c1.41698,1.47822 1.91798,4.64926 2.10352,9.54688c-5.9373,-1.52826 -10.49598,-6.06731 -12.05664,-11.99219zM40.2207,28.26953c-1.56363,5.91802 -6.12013,10.45256 -12.05273,11.98047c0.18546,-4.89227 0.68349,-8.05774 2.09961,-9.5332c1.42407,-1.48374 4.68174,-2.15067 9.95313,-2.44727z"></path></g></g></svg>